<svg xmlns="http://www.w3.org/2000/svg" width="364.511" height="217.176" viewBox="0 0 364.511 217.176">
  <g id="Group_104" data-name="Group 104" transform="translate(-100.5 -84.893)">
    <g id="גרף_מצביעים" data-name="גרף מצביעים" transform="translate(334.705 302.069) rotate(-90)">
      <path id="Rectangle_14" data-name="Rectangle 14" d="M0,0H73.84A16.288,16.288,0,0,1,90.128,16.288v0A16.288,16.288,0,0,1,73.84,32.576H0a0,0,0,0,1,0,0V0A0,0,0,0,1,0,0Z" transform="translate(1.086 74.461)" fill="#00a10b"/>
      <path id="Rectangle_15" data-name="Rectangle 15" d="M0,0H163.968a16.288,16.288,0,0,1,16.288,16.288v0a16.288,16.288,0,0,1-16.288,16.288H0a0,0,0,0,1,0,0V0A0,0,0,0,1,0,0Z" transform="translate(1.086 31.026)" fill="#df0404"/>
      <line id="Line_10" data-name="Line 10" y2="130.306" transform="translate(0.909 0)" fill="none" stroke="#707070" stroke-width="1"/>
      <line id="Line_11" data-name="Line 11" x2="217.176" transform="translate(0 0.415)" fill="none" stroke="#707070" stroke-width="1"/>
    </g>
    <g id="גרף_כללי" data-name="גרף כללי" transform="translate(101 113.844)">
      <path id="Subtraction_1" data-name="Subtraction 1" d="M43.677,158.1A78.692,78.692,0,0,1,0,144.951l15.873-20.467,27.8-92.136V0a78.683,78.683,0,0,1,44.2,13.5,79.281,79.281,0,0,1,28.641,34.78,79.312,79.312,0,0,1,0,61.541,79.058,79.058,0,0,1-7.288,13.428,79.284,79.284,0,0,1-34.78,28.641A78.559,78.559,0,0,1,43.677,158.1Z" transform="translate(35.13 0.065)" fill="#2c00a1"/>
      <g id="Ellipse_4" data-name="Ellipse 4" transform="translate(21.708 21.708)" fill="#fff" stroke="#2c00a1" stroke-width="1">
        <circle cx="56.818" cy="56.818" r="56.818" stroke="none"/>
        <circle cx="56.818" cy="56.818" r="56.318" fill="none"/>
      </g>
      <circle id="Ellipse_5" data-name="Ellipse 5" cx="79.164" cy="79.164" r="79.164" transform="translate(0 0)" fill="none" stroke="#2c00a1" stroke-width="1"/>
    </g>
  </g>
</svg>
