<svg id="message" xmlns="http://www.w3.org/2000/svg" width="42.295" height="37.957" viewBox="0 0 42.295 37.957">
  <g id="message-2" data-name="message" fill="none">
    <path d="M7.221,29.118H4a4,4,0,0,1-4-4V4A4,4,0,0,1,4,0H38.294a4,4,0,0,1,4,4V25.117a4,4,0,0,1-4,4H19.086L7.221,37.957Z" stroke="none"/>
    <path d="M 9.220700263977051 33.97273254394531 L 18.42265129089355 27.11770057678223 L 38.29410171508789 27.11770057678223 C 39.39718246459961 27.11770057678223 40.29460144042969 26.22027969360352 40.29460144042969 25.11720085144043 L 40.29460144042969 3.999600172042847 C 40.29460144042969 2.897020101547241 39.39718246459961 2 38.29410171508789 2 L 3.999600648880005 2 C 2.897020816802979 2 2.000000715255737 2.897020101547241 2.000000715255737 3.999600172042847 L 2.000000715255737 25.11720085144043 C 2.000000715255737 26.22027969360352 2.897020816802979 27.11770057678223 3.999600648880005 27.11770057678223 L 9.220700263977051 27.11770057678223 L 9.220700263977051 33.97273254394531 M 7.220700740814209 37.95660018920898 L 7.220700740814209 29.11770057678223 L 3.999600648880005 29.11770057678223 C 1.791000723838806 29.11770057678223 7.202148708529421e-07 27.32670021057129 7.202148708529421e-07 25.11720085144043 L 7.202148708529421e-07 3.999600172042847 C 7.202148708529421e-07 1.791000127792358 1.791000723838806 9.460448779918806e-08 3.999600648880005 9.460448779918806e-08 L 38.29410171508789 9.460448779918806e-08 C 40.50360107421875 9.460448779918806e-08 42.29460144042969 1.791000127792358 42.29460144042969 3.999600172042847 L 42.29460144042969 25.11720085144043 C 42.29460144042969 27.32670021057129 40.50360107421875 29.11770057678223 38.29410171508789 29.11770057678223 L 19.08572006225586 29.11770057678223 L 7.220700740814209 37.95660018920898 Z" stroke="none" fill="#027eb5"/>
  </g>
  <line id="Line_1" data-name="Line 1" x2="15.346" transform="translate(18.137 11.28)" fill="none" stroke="#027eb5" stroke-linecap="round" stroke-width="1"/>
  <line id="Line_2" data-name="Line 2" x1="20.461" transform="translate(13.473 18.284)" fill="none" stroke="#027eb5" stroke-linecap="round" stroke-width="1"/>
</svg>
