<svg xmlns="http://www.w3.org/2000/svg" width="31.024" height="31.025" viewBox="0 0 31.024 31.025">
  <path id="phone" d="M28.173,20.493l-6.344-2.719a1.359,1.359,0,0,0-1.586.391L17.434,21.6A21,21,0,0,1,7.4,11.561L10.83,8.752a1.356,1.356,0,0,0,.391-1.586L8.5.822A1.368,1.368,0,0,0,6.944.035L1.054,1.394A1.359,1.359,0,0,0,0,2.719,26.279,26.279,0,0,0,26.282,29a1.359,1.359,0,0,0,1.325-1.054l1.359-5.891A1.376,1.376,0,0,0,28.173,20.493Z" transform="translate(1 1.025)" fill="none" stroke="#2a0074" stroke-width="2"/>
</svg>
