<svg xmlns="http://www.w3.org/2000/svg" width="144.616" height="144.654" viewBox="0 0 144.616 144.654">
  <path id="Icon_ionic-ios-settings" data-name="Icon ionic-ios-settings" d="M136.1,76.22A18.458,18.458,0,0,1,147.94,59a73.164,73.164,0,0,0-8.853-21.329,18.7,18.7,0,0,1-7.508,1.606,18.417,18.417,0,0,1-16.847-25.924A72.942,72.942,0,0,0,93.44,4.5,18.474,18.474,0,0,1,76.22,16.341,18.474,18.474,0,0,1,59,4.5,73.163,73.163,0,0,0,37.67,13.353,18.417,18.417,0,0,1,20.824,39.277a18.1,18.1,0,0,1-7.508-1.606A74.781,74.781,0,0,0,4.5,59.037a18.437,18.437,0,0,1,11.841,17.22,18.479,18.479,0,0,1-11.8,17.22,73.164,73.164,0,0,0,8.853,21.329,18.425,18.425,0,0,1,24.317,24.317,73.589,73.589,0,0,0,21.329,8.853,18.408,18.408,0,0,1,34.366,0,73.162,73.162,0,0,0,21.329-8.853,18.443,18.443,0,0,1,24.317-24.317A73.591,73.591,0,0,0,147.9,93.477,18.546,18.546,0,0,1,136.1,76.22ZM76.556,106.066a29.883,29.883,0,1,1,29.883-29.883A29.875,29.875,0,0,1,76.556,106.066Z" transform="translate(-3.912 -3.911)" fill="#bbb1e6" stroke="#000" stroke-width="1"/>
</svg>
