<svg xmlns="http://www.w3.org/2000/svg" width="36.732" height="37" viewBox="0 0 36.732 37">
  <g id="Whatsapp" transform="translate(0.073 -0.5)">
    <g id="Union_1" data-name="Union 1" transform="translate(-0.072 0.5)" fill="none">
      <path d="M8.916,34.366l-7.79,2.079L2.8,28.327A18.529,18.529,0,0,1,18.366,0a18.5,18.5,0,0,1,0,37A18.183,18.183,0,0,1,8.916,34.366Z" stroke="none"/>
      <path d="M 18.36588096618652 35 C 22.73479080200195 35 26.84287071228027 33.28554153442383 29.93339157104492 30.17243003845215 C 33.02766036987305 27.0555305480957 34.73176193237305 22.91036987304688 34.73176193237305 18.50054931640625 C 34.73176193237305 14.09022998809814 33.02765274047852 9.944729804992676 29.9333610534668 6.827680110931396 C 26.8429012298584 3.714499950408936 22.73483085632324 2 18.36588096618652 2 C 13.99732112884521 2 9.889370918273926 3.714509963989258 6.798780918121338 6.827710151672363 C 3.704241037368774 9.944869995117188 2.000000953674316 14.09037017822266 2.000000953674316 18.50054931640625 C 2.000000953674316 21.61461067199707 2.864420890808105 24.64665031433105 4.499801158905029 27.26889991760254 L 4.923330783843994 27.94799995422363 L 3.739939212799072 33.67757034301758 L 9.223570823669434 32.21435928344727 L 9.952180862426758 32.65557861328125 C 12.48491096496582 34.18930816650391 15.39432144165039 35 18.36588096618652 35 M 18.36588096618652 37 C 14.91027069091797 37 11.6768913269043 36.03813171386719 8.916200637817383 34.36634826660156 L 1.126140952110291 36.44498825073242 L 2.802780866622925 28.3272590637207 C 1.027060985565186 25.47999000549316 9.661865760790533e-07 22.11101913452148 9.661865760790533e-07 18.50054931640625 C 9.661865760790533e-07 8.282899856567383 8.223160743713379 0 18.36588096618652 0 C 28.50967025756836 0 36.73176193237305 8.282899856567383 36.73176193237305 18.50054931640625 C 36.73176193237305 28.71710014343262 28.50967025756836 37 18.36588096618652 37 Z" stroke="none" fill="#00a10b"/>
    </g>
    <path id="phone" d="M16.535,12.028l-3.723-1.6a.8.8,0,0,0-.931.229l-1.649,2.015A12.322,12.322,0,0,1,4.342,6.786L6.356,5.137a.8.8,0,0,0,.229-.931L4.99.483A.8.8,0,0,0,4.076.021L.618.818A.8.8,0,0,0,0,1.6,15.424,15.424,0,0,0,15.425,17.021.8.8,0,0,0,16.2,16.4l.8-3.457A.808.808,0,0,0,16.535,12.028Z" transform="translate(9.927 10.5)" fill="#00a10b"/>
  </g>
</svg>
